<svg xmlns="http://www.w3.org/2000/svg" xmlns:xlink="http://www.w3.org/1999/xlink" width="840" height="581.04"><rect width="840" height="581.04" rx="5" ry="5" class="a"/><svg y="0%" x="0%"><circle cx="20" cy="20" r="6" fill="#ff5f58"/><circle cx="40" cy="20" r="6" fill="#ffbd2e"/><circle cx="60" cy="20" r="6" fill="#18c132"/></svg><svg height="521.04" viewBox="0 0 80 52.104" width="800" x="15" xmlns="http://www.w3.org/2000/svg" xmlns:xlink="http://www.w3.org/1999/xlink" y="50"><style>@keyframes i{0%{transform:translateX(0)}.1%{transform:translateX(-160px)}14%{transform:translateX(-240px)}48.6%{transform:translateX(-400px)}55.6%{transform:translateX(-480px)}66.7%{transform:translateX(-560px)}75%{transform:translateX(-640px)}82%{transform:translateX(-720px)}95.8%{transform:translateX(-800px)}to{transform:translateX(-880px)}}.a{fill:#282d35}.f{fill:#b9c0cb;white-space:pre}</style><g font-family="Monaco,Consolas,Menlo,'Bitstream Vera Sans Mono','Powerline Symbols',monospace" font-size="1.67"><defs><symbol id="1"><text x="2.004" y="1.67" class="f">ebook-tts</text><text x="12.024" y="1.67" class="f">-</text><text x="14.028" y="1.67" class="f">PDF</text><text x="18.036" y="1.67" class="f">to</text><text x="21.042" y="1.67" class="f">Audiobook</text><text x="31.062" y="1.67" class="f">Converter</text></symbol><symbol id="2"><text x="2.004" y="1.67" class="f">=======================================</text></symbol><symbol id="3"><text y="1.67" class="f">$</text><text x="2.004" y="1.67" class="f">ebook-tts</text><text x="12.024" y="1.67" class="f">list-voices</text><text x="24.048" y="1.67" class="f">--lang</text><text x="31.062" y="1.67" class="f">a</text></symbol><symbol id="4"><text y="1.67" class="f">$</text><text x="2.004" y="1.67" class="f">ebook-tts</text><text x="12.024" y="1.67" class="f">convert</text><text x="20.04" y="1.67" class="f">--pdf</text><text x="26.052" y="1.67" class="f">book.pdf</text><text x="35.07" y="1.67" class="f">--output</text><text x="44.088" y="1.67" class="f">book.wav</text><text x="53.106" y="1.67" class="f">--mock</text></symbol><symbol id="5"><text x="2.004" y="1.67" class="f">Extracting</text><text x="13.026" y="1.67" class="f">text</text><text x="18.036" y="1.67" class="f">from</text><text x="23.046" y="1.67" class="f">PDF...</text></symbol><symbol id="6"><text x="2.004" y="1.67" class="f">Detecting</text><text x="12.024" y="1.67" class="f">chapters...</text></symbol><symbol id="7"><text x="2.004" y="1.67" class="f">Preprocessing</text><text x="16.032" y="1.67" class="f">text...</text></symbol><symbol id="8"><text x="2.004" y="1.67" class="f">Synthesizing</text><text x="15.03" y="1.67" class="f">audio</text><text x="21.042" y="1.67" class="f">(mock</text><text x="27.054" y="1.67" class="f">mode)...</text></symbol><symbol id="9"><text x="2.004" y="1.67" class="f">[████████████████████████████████]</text><text x="37.074" y="1.67" class="f">100%</text></symbol><symbol id="a"><path fill="transparent" d="M0 0h80v25H0z"/></symbol><symbol id="b"><path fill="#6f7683" d="M0 0h1.102v2.171H0z"/></symbol></defs><path class="a" d="M0 0h80v52.104H0z"/><g style="animation-duration:7.239267s;animation-iteration-count:infinite;animation-name:i;animation-timing-function:steps(1,end)"><svg width="960"><svg><use xlink:href="#a"/><use xlink:href="#b" x="-.004"/></svg><svg x="80"><use xlink:href="#a"/><use xlink:href="#b" x="-.004"/></svg><svg x="160"><use xlink:href="#a"/><use xlink:href="#b" x="-.004" y="8.659"/><use xlink:href="#1" y="2.171"/><use xlink:href="#2" y="4.342"/></svg><svg x="240"><use xlink:href="#a"/><use xlink:href="#b" x="-.004" y="10.83"/><use xlink:href="#1" y="2.171"/><use xlink:href="#2" y="4.342"/><use xlink:href="#3" y="8.684"/></svg><svg x="320"><use xlink:href="#a"/><use xlink:href="#b" x="-.004" y="13.001"/><use xlink:href="#1" y="2.171"/><use xlink:href="#2" y="4.342"/><use xlink:href="#3" y="8.684"/></svg><svg x="400"><use xlink:href="#a"/><use xlink:href="#b" x="-.004" y="15.172"/><use xlink:href="#1" y="2.171"/><use xlink:href="#2" y="4.342"/><use xlink:href="#3" y="8.684"/><use xlink:href="#4" y="13.026"/></svg><svg x="480"><use xlink:href="#a"/><use xlink:href="#b" x="-.004" y="19.514"/><use xlink:href="#1" y="2.171"/><use xlink:href="#2" y="4.342"/><use xlink:href="#3" y="8.684"/><use xlink:href="#4" y="13.026"/><use xlink:href="#5" y="17.368"/></svg><svg x="560"><use xlink:href="#a"/><use xlink:href="#b" x="-.004" y="21.685"/><use xlink:href="#1" y="2.171"/><use xlink:href="#2" y="4.342"/><use xlink:href="#3" y="8.684"/><use xlink:href="#4" y="13.026"/><use xlink:href="#5" y="17.368"/><use xlink:href="#6" y="19.539"/></svg><svg x="640"><use xlink:href="#a"/><use xlink:href="#b" x="-.004" y="23.856"/><use xlink:href="#1" y="2.171"/><use xlink:href="#2" y="4.342"/><use xlink:href="#3" y="8.684"/><use xlink:href="#4" y="13.026"/><use xlink:href="#5" y="17.368"/><use xlink:href="#6" y="19.539"/><use xlink:href="#7" y="21.71"/></svg><svg x="720"><use xlink:href="#a"/><use xlink:href="#b" x="-.004" y="26.027"/><use xlink:href="#1" y="2.171"/><use xlink:href="#2" y="4.342"/><use xlink:href="#3" y="8.684"/><use xlink:href="#4" y="13.026"/><use xlink:href="#5" y="17.368"/><use xlink:href="#6" y="19.539"/><use xlink:href="#7" y="21.71"/><use xlink:href="#8" y="23.881"/></svg><svg x="800"><use xlink:href="#a"/><use xlink:href="#b" x="-.004" y="28.198"/><use xlink:href="#1" y="2.171"/><use xlink:href="#2" y="4.342"/><use xlink:href="#3" y="8.684"/><use xlink:href="#4" y="13.026"/><use xlink:href="#5" y="17.368"/><use xlink:href="#6" y="19.539"/><use xlink:href="#7" y="21.71"/><use xlink:href="#8" y="23.881"/><use xlink:href="#9" y="26.052"/></svg><svg x="880"><use xlink:href="#a"/><use xlink:href="#b" x="-.004" y="34.711"/><use xlink:href="#1" y="2.171"/><use xlink:href="#2" y="4.342"/><use xlink:href="#3" y="8.684"/><use xlink:href="#4" y="13.026"/><use xlink:href="#5" y="17.368"/><use xlink:href="#6" y="19.539"/><use xlink:href="#7" y="21.71"/><use xlink:href="#8" y="23.881"/><use xlink:href="#9" y="26.052"/><text x="2.004" y="32.064" class="f">✓</text><text x="4.008" y="32.064" class="f">Conversion</text><text x="15.03" y="32.064" class="f">complete:</text><text x="25.05" y="32.064" class="f">book.wav</text><text x="34.068" y="32.064" class="f">(5:23)</text></svg></svg></g></g></svg></svg>